<mxfile host="65bd71144e" modified="2020-11-23T14:13:14.756Z" agent="5.0 (X11; Linux x86_64) AppleWebKit/537.36 (KHTML, like Gecko) Code/1.51.1 Chrome/83.0.4103.122 Electron/9.3.3 Safari/537.36" etag="r7YWbWCiaOuyxu3NDnpn" version="13.6.5">
    <diagram id="b1gEaaAp6jL7LE0FQBbH" name="power">
        <mxGraphModel dx="798" dy="612" grid="1" gridSize="10" guides="1" tooltips="1" connect="1" arrows="1" fold="1" page="1" pageScale="1" pageWidth="850" pageHeight="1100" math="0" shadow="0" extFonts="Rubik^https://fonts.googleapis.com/css?family=Rubik">
            <root>
                <mxCell id="nlD2iHh1MmiJ1C6UmBcI-0"/>
                <mxCell id="nlD2iHh1MmiJ1C6UmBcI-1" parent="nlD2iHh1MmiJ1C6UmBcI-0"/>
                <mxCell id="GzhuxJOXaBINS4ig1N7S-0" style="edgeStyle=orthogonalEdgeStyle;rounded=0;orthogonalLoop=1;jettySize=auto;html=1;endArrow=none;endFill=0;strokeWidth=2;fontColor=#000000;strokeColor=#FF9933;exitX=0.5;exitY=0;exitDx=0;exitDy=0;startArrow=blockThin;startFill=1;" parent="nlD2iHh1MmiJ1C6UmBcI-1" source="GzhuxJOXaBINS4ig1N7S-2" target="KxfJ6LxnbfGkXqWutF9t-0" edge="1">
                    <mxGeometry relative="1" as="geometry">
                        <Array as="points">
                            <mxPoint x="710" y="120"/>
                            <mxPoint x="620" y="120"/>
                        </Array>
                    </mxGeometry>
                </mxCell>
                <mxCell id="2buaIWjO1R38wK5Vn-if-2" value="&lt;div style=&quot;color: rgb(0 , 0 , 0) ; font-family: &amp;#34;helvetica&amp;#34; ; font-size: 13px ; font-style: normal ; font-weight: 400 ; letter-spacing: normal ; text-align: center ; text-indent: 0px ; text-transform: none ; word-spacing: 0px&quot;&gt;&lt;font style=&quot;font-size: 13px&quot;&gt;NETGEAR -&amp;nbsp;&lt;/font&gt;&lt;span&gt;Switch&lt;/span&gt;&lt;/div&gt;" style="rounded=0;whiteSpace=wrap;html=1;shadow=0;glass=0;comic=0;strokeColor=#000000;strokeWidth=1;fillColor=#ffffff;gradientColor=none;fontFamily=Helvetica;fontSize=13;fontColor=#000000;" parent="nlD2iHh1MmiJ1C6UmBcI-1" vertex="1">
                    <mxGeometry x="440" y="180" width="160" height="50" as="geometry"/>
                </mxCell>
                <mxCell id="2buaIWjO1R38wK5Vn-if-4" value="&lt;div style=&quot;font-size: 13px&quot;&gt;Basler - Camera (x4)&lt;/div&gt;" style="rounded=0;whiteSpace=wrap;html=1;shadow=0;glass=0;comic=0;strokeColor=#000000;strokeWidth=1;fillColor=#ffffff;gradientColor=none;fontFamily=Helvetica;fontSize=13;fontColor=#000000;" parent="nlD2iHh1MmiJ1C6UmBcI-1" vertex="1">
                    <mxGeometry x="50" y="180" width="160" height="50" as="geometry"/>
                </mxCell>
                <mxCell id="2buaIWjO1R38wK5Vn-if-5" style="edgeStyle=orthogonalEdgeStyle;rounded=0;orthogonalLoop=1;jettySize=auto;html=1;fillColor=#ffe6cc;strokeColor=#FF9933;strokeWidth=2;endArrow=blockThin;endFill=1;fontFamily=Helvetica;fontSize=13;fontColor=#000000;" parent="nlD2iHh1MmiJ1C6UmBcI-1" source="2buaIWjO1R38wK5Vn-if-6" target="2buaIWjO1R38wK5Vn-if-11" edge="1">
                    <mxGeometry relative="1" as="geometry"/>
                </mxCell>
                <mxCell id="2buaIWjO1R38wK5Vn-if-6" value="LionTec Battery - 24V" style="rounded=0;whiteSpace=wrap;html=1;shadow=0;glass=0;comic=0;strokeColor=#000000;strokeWidth=1;fillColor=#ffffff;gradientColor=none;fontFamily=Helvetica;fontSize=13;fontColor=#000000;" parent="nlD2iHh1MmiJ1C6UmBcI-1" vertex="1">
                    <mxGeometry x="150" y="40" width="170" height="60" as="geometry"/>
                </mxCell>
                <mxCell id="2buaIWjO1R38wK5Vn-if-31" style="edgeStyle=orthogonalEdgeStyle;rounded=0;orthogonalLoop=1;jettySize=auto;html=1;entryX=0.5;entryY=0;entryDx=0;entryDy=0;fontFamily=Helvetica;fontSize=13;endArrow=blockThin;endFill=1;strokeWidth=2;strokeColor=#FF9933;exitX=0.5;exitY=1;exitDx=0;exitDy=0;fontColor=#000000;" parent="nlD2iHh1MmiJ1C6UmBcI-1" source="2buaIWjO1R38wK5Vn-if-11" target="2buaIWjO1R38wK5Vn-if-2" edge="1">
                    <mxGeometry relative="1" as="geometry">
                        <Array as="points">
                            <mxPoint x="430" y="140"/>
                            <mxPoint x="520" y="140"/>
                        </Array>
                    </mxGeometry>
                </mxCell>
                <mxCell id="2buaIWjO1R38wK5Vn-if-34" style="edgeStyle=orthogonalEdgeStyle;rounded=0;orthogonalLoop=1;jettySize=auto;html=1;exitX=0.5;exitY=1;exitDx=0;exitDy=0;endArrow=blockThin;endFill=1;strokeColor=#FF9933;strokeWidth=2;fontFamily=Helvetica;fontSize=13;fontColor=#000000;" parent="nlD2iHh1MmiJ1C6UmBcI-1" source="2buaIWjO1R38wK5Vn-if-11" target="2buaIWjO1R38wK5Vn-if-15" edge="1">
                    <mxGeometry relative="1" as="geometry">
                        <Array as="points">
                            <mxPoint x="430" y="140"/>
                            <mxPoint x="330" y="140"/>
                        </Array>
                    </mxGeometry>
                </mxCell>
                <mxCell id="GzhuxJOXaBINS4ig1N7S-3" style="edgeStyle=orthogonalEdgeStyle;rounded=0;orthogonalLoop=1;jettySize=auto;html=1;entryX=0.5;entryY=0;entryDx=0;entryDy=0;endArrow=blockThin;endFill=1;strokeColor=#FF9933;strokeWidth=2;fontColor=#000000;" parent="nlD2iHh1MmiJ1C6UmBcI-1" source="2buaIWjO1R38wK5Vn-if-11" target="2buaIWjO1R38wK5Vn-if-4" edge="1">
                    <mxGeometry relative="1" as="geometry">
                        <Array as="points">
                            <mxPoint x="430" y="140"/>
                            <mxPoint x="130" y="140"/>
                        </Array>
                    </mxGeometry>
                </mxCell>
                <mxCell id="GzhuxJOXaBINS4ig1N7S-5" style="edgeStyle=orthogonalEdgeStyle;rounded=0;orthogonalLoop=1;jettySize=auto;html=1;startArrow=none;startFill=0;endArrow=blockThin;endFill=1;strokeColor=#FF9933;strokeWidth=2;fontColor=#000000;" parent="nlD2iHh1MmiJ1C6UmBcI-1" source="2buaIWjO1R38wK5Vn-if-11" target="KxfJ6LxnbfGkXqWutF9t-0" edge="1">
                    <mxGeometry relative="1" as="geometry"/>
                </mxCell>
                <mxCell id="2buaIWjO1R38wK5Vn-if-11" value="Power converter 24V to 12V" style="rounded=1;whiteSpace=wrap;html=1;shadow=0;glass=0;comic=0;strokeColor=#000000;strokeWidth=1;fillColor=#ffffff;gradientColor=none;fontFamily=Helvetica;fontSize=13;fontColor=#000000;" parent="nlD2iHh1MmiJ1C6UmBcI-1" vertex="1">
                    <mxGeometry x="360" y="40" width="140" height="60" as="geometry"/>
                </mxCell>
                <mxCell id="2buaIWjO1R38wK5Vn-if-15" value="&lt;div style=&quot;font-size: 13px&quot;&gt;OS1 - LiDAR (x2)&lt;/div&gt;" style="rounded=0;whiteSpace=wrap;html=1;shadow=0;glass=0;comic=0;strokeColor=#000000;strokeWidth=1;fillColor=#ffffff;gradientColor=none;fontFamily=Helvetica;fontSize=13;fontColor=#000000;" parent="nlD2iHh1MmiJ1C6UmBcI-1" vertex="1">
                    <mxGeometry x="250" y="180" width="160" height="50" as="geometry"/>
                </mxCell>
                <mxCell id="KxfJ6LxnbfGkXqWutF9t-0" value="&lt;div&gt;&lt;div style=&quot;font-size: 13px&quot;&gt;USB Switch&lt;br&gt;&lt;/div&gt;&lt;/div&gt;" style="rounded=0;whiteSpace=wrap;html=1;fontFamily=Helvetica;fontSize=13;fontColor=#000000;fillColor=#FFFFFF;" parent="nlD2iHh1MmiJ1C6UmBcI-1" vertex="1">
                    <mxGeometry x="540" y="40" width="160" height="60" as="geometry"/>
                </mxCell>
                <mxCell id="GzhuxJOXaBINS4ig1N7S-2" value="&lt;div&gt;&lt;div style=&quot;font-size: 13px&quot;&gt;Emlid - GPS&lt;br style=&quot;font-size: 13px&quot;&gt;&lt;/div&gt;&lt;/div&gt;&lt;div&gt;(w/ own battery)&lt;br&gt;&lt;/div&gt;" style="rounded=0;whiteSpace=wrap;html=1;fontFamily=Helvetica;fontSize=13;fontColor=#000000;fillColor=#FFFFFF;" parent="nlD2iHh1MmiJ1C6UmBcI-1" vertex="1">
                    <mxGeometry x="630" y="180" width="160" height="50" as="geometry"/>
                </mxCell>
            </root>
        </mxGraphModel>
    </diagram>
</mxfile>